<svg version="1.1" xmlns="http://www.w3.org/2000/svg" viewBox="-2363.392091369629 -1075.2000610351563 9257.813778686523 2397.1840911865233" ><desc>Created with Snap</desc><defs></defs><g><rect x="-2363.392091369629" y="-1075.2000610351563" width="9257.813778686523" height="2397.1840911865233" style="" fill="#37515f00"></rect><g transform="matrix(55.712,0,0,55.712,-2056.1921,-768.0001)"><g display="none"><rect x="-69.333" y="-18.667" display="inline" fill="#ffffff" width="473.333" height="236" style=""></rect></g><g display="none"><g display="inline"><g><polygon fill="#ffffff" points="32,31.952 0,31.952 0,0.048    " style=""></polygon></g><g><polygon fill="#ffffff" points="23.347,23.325 8.653,23.325 8.653,8.675    " style=""></polygon></g></g><g display="inline"><g><polygon fill="#ffffff" points="0,0.048 32,0.048 32,31.952    " style=""></polygon></g><g><polygon fill="#ffffff" points="8.653,8.675 23.347,8.675 23.347,23.325    " style=""></polygon></g></g></g><g display="none"><g display="inline"><rect x="8.675" y="8.675" fill="#ffffff" stroke="#ffffff" stroke-miterlimit="10" width="14.65" height="14.65" style=""></rect><rect x="0.5" y="0.326" fill="#ffffff" stroke="#ffffff" stroke-miterlimit="10" width="31" height="31.348" style=""></rect><line fill="#ffffff" stroke="#ffffff" stroke-miterlimit="10" x1="0.413" y1="0.413" x2="31.587" y2="31.587" style=""></line></g></g><g display="none"><rect x="0.5" y="0.326" display="inline" fill="#ffffff" stroke="#ffffff" stroke-miterlimit="10" width="31" height="31.348" style=""></rect><rect x="8.675" y="8.675" display="inline" fill="#ffffff" stroke="#ffffff" stroke-miterlimit="10" width="14.65" height="14.65" style=""></rect><line display="inline" fill="#ffffff" stroke="#ffffff" stroke-miterlimit="10" x1="0.413" y1="0.413" x2="31.587" y2="31.587" style=""></line></g><g><g><polygon points="9.382,8.675 23.325,8.675 23.325,22.618 32,31.293 32,0 0.707,0   " style="" fill="#ffffff"></polygon><polygon points="22.618,23.325 8.675,23.325 8.675,9.382 0,0.707 0,32 31.293,32   " style="" fill="#ffffff"></polygon></g></g><desc>Created with Snap</desc><defs></defs></g><g><g transform="matrix(1.024,0,0,-1.024,0,0)"><path d="M45 -10L33 -10L33 169L45 169Q71 82 115 47Q159 12 225 12Q327 12 327 77Q327 105 302 119Q263 141 202 153Q134 171 88 201Q33 237 33 315Q33 393 81 439Q129 486 209 486Q258 486 310 463Q329 455 339 455Q349 455 356 462Q363 469 373 488L384 488L384 335L372 335Q321 465 214 465Q167 465 144 448Q121 432 121 407Q121 392 128 383Q135 375 139 371Q143 367 152 362Q161 358 167 355Q173 353 185 349Q198 345 204 344Q272 327 302 314Q332 302 359 284Q414 246 414 161Q414 77 364 33Q314 -10 227 -10Q165 -10 107 19Q95 27 88 27Q66 27 45 -10ZM707 -10Q578 -10 513 56Q449 123 449 241Q449 360 521 423Q594 486 706 486Q933 486 924 258L642 258L642 219Q642 121 667 71Q692 21 754 21Q870 21 906 145L924 142Q905 70 855 30Q806 -10 707 -10ZM643 327L643 278L746 278L746 327Q746 408 736 437Q727 467 698 467Q670 467 656 435Q643 404 643 327ZM962 458L962 476L1203 476L1203 384Q1219 430 1252 458Q1285 486 1352 486Q1507 486 1507 319L1507 18L1563 18L1563 0L1280 0L1280 18L1321 18L1321 343Q1321 403 1313 420Q1305 438 1284 438Q1252 438 1227 396Q1203 354 1203 294L1203 18L1246 18L1246 0L962 0L962 18L1017 18L1017 458L962 458ZM1779 207Q1779 102 1790 67Q1801 33 1830 33Q1860 33 1881 59Q1903 85 1903 136L1903 354Q1903 397 1886 427Q1869 457 1836 457Q1803 457 1791 413Q1779 369 1779 259L1779 207ZM2138 0L1916 0L1905 70Q1871 -10 1767 -10Q1681 -10 1633 52Q1586 114 1586 237Q1586 486 1784 486Q1872 486 1900 437L1900 732L1839 732L1839 750L2089 750L2089 18L2138 18L2138 0ZM2529 269Q2529 372 2519 407Q2509 443 2480 443Q2451 443 2428 407Q2405 371 2405 308L2405 122Q2405 79 2422 49Q2440 19 2472 19Q2505 19 2517 63Q2529 107 2529 217L2529 269ZM2164 750L2405 750L2405 400Q2443 486 2535 486Q2722 486 2722 237Q2722 110 2670 50Q2619 -10 2516 -10Q2464 -10 2436 6Q2409 22 2399 59L2392 0L2164 0L2164 18L2219 18L2219 732L2164 732L2164 750ZM2992 235L3021 235L3021 312Q3021 407 3010 439Q3000 472 2970 472Q2952 472 2937 462Q2923 453 2923 436Q2923 420 2929 403L2954 403Q2962 382 2962 352Q2962 323 2937 301Q2912 280 2874 280Q2788 280 2788 363Q2788 486 2997 486Q3116 486 3161 445Q3207 405 3207 297L3207 94Q3207 42 3236 42Q3270 42 3276 145L3291 144Q3287 56 3258 23Q3229 -10 3163 -10Q3043 -10 3025 64Q3012 26 2986 8Q2960 -10 2910 -10Q2762 -10 2762 111Q2762 182 2818 208Q2875 235 2992 235ZM2952 112Q2952 60 2957 45Q2963 30 2978 30Q2994 30 3007 55Q3021 81 3021 126L3021 219L3014 219Q2952 219 2952 128L2952 112ZM3635 448Q3598 448 3570 400Q3542 352 3542 286L3542 18L3613 18L3613 0L3301 0L3301 18L3356 18L3356 458L3301 458L3301 476L3542 476L3542 380Q3555 431 3592 458Q3629 486 3676 486Q3723 486 3752 459Q3782 433 3782 384Q3782 336 3760 310Q3738 284 3692 284Q3647 284 3625 314Q3604 344 3620 397L3656 397Q3681 448 3635 448Z" style="" fill="#ffffff"></path></g></g><g transform="matrix(0.75,0,0,0.75,1.6213,868.864)"><g transform="matrix(1.024,0,0,-1.024,0,0)"><path d="M254 -10Q198 -10 158 4Q118 18 93 38Q68 58 55 78Q43 98 42 110Q41 121 49 127Q57 133 65 133L110 133Q115 133 118 131Q122 130 128 123Q141 109 157 95Q173 81 196 72Q220 63 255 63Q306 63 339 82Q372 102 372 140Q372 165 358 180Q345 195 310 207Q276 219 216 232Q156 246 121 266Q86 287 71 315Q56 344 56 380Q56 417 78 451Q100 486 142 508Q185 530 249 530Q301 530 338 517Q375 504 399 484Q423 465 435 446Q447 427 448 414Q449 404 442 397Q435 391 426 391L384 391Q377 391 372 394Q368 397 364 401Q354 414 340 427Q327 440 305 448Q284 457 249 457Q199 457 174 436Q149 415 149 383Q149 364 160 349Q171 334 202 322Q233 310 294 296Q360 283 398 261Q436 239 452 210Q468 181 468 143Q468 101 444 66Q420 31 372 10Q324 -10 254 -10ZM792 -10Q688 -10 627 53Q566 117 560 227Q559 240 559 260Q559 281 560 294Q564 365 593 418Q622 472 672 501Q723 530 791 530Q867 530 918 498Q970 466 997 407Q1024 348 1024 269L1024 252Q1024 241 1017 235Q1011 229 1001 229L655 229Q655 228 655 225Q655 222 655 220Q657 179 673 143Q689 108 719 86Q750 64 791 64Q827 64 851 75Q875 86 890 99Q905 113 910 121Q919 133 924 135Q929 138 940 138L989 138Q998 138 1004 132Q1011 127 1010 117Q1009 102 994 80Q979 59 951 38Q924 17 883 3Q843 -10 792 -10ZM655 301L655 298L929 298L929 301Q929 346 912 381Q896 416 865 436Q834 457 791 457Q748 457 717 436Q687 416 671 381Q655 346 655 301ZM1217 0L1167 0Q1157 0 1150 6Q1144 13 1144 23L1144 497Q1144 507 1150 513Q1157 520 1167 520L1214 520Q1224 520 1230 513Q1237 507 1237 497L1237 453Q1263 487 1302 508Q1342 530 1404 530Q1469 530 1514 501Q1560 473 1583 422Q1607 372 1607 305L1607 23Q1607 13 1600 6Q1594 0 1584 0L1534 0Q1524 0 1517 6Q1511 13 1511 23L1511 300Q1511 370 1477 409Q1443 449 1377 449Q1315 449 1277 409Q1240 370 1240 300L1240 23Q1240 13 1233 6Q1227 0 1217 0ZM1940 -10Q1885 -10 1845 9Q1805 29 1779 62Q1754 96 1741 139Q1729 182 1727 230Q1726 246 1726 260Q1726 274 1727 290Q1729 337 1741 380Q1754 423 1779 457Q1805 491 1845 510Q1885 530 1940 530Q1999 530 2038 509Q2077 488 2102 457L2102 687Q2102 697 2108 703Q2115 710 2125 710L2173 710Q2183 710 2189 703Q2196 697 2196 687L2196 23Q2196 13 2189 6Q2183 0 2173 0L2128 0Q2117 0 2111 6Q2105 13 2105 23L2105 65Q2080 33 2040 11Q2000 -10 1940 -10ZM1961 71Q2011 71 2041 94Q2071 117 2086 152Q2101 188 2102 225Q2103 241 2103 263Q2103 286 2102 302Q2101 337 2085 371Q2070 405 2039 427Q2009 449 1961 449Q1910 449 1880 426Q1850 404 1837 367Q1824 331 1822 289Q1821 260 1822 231Q1824 189 1837 152Q1850 116 1880 93Q1910 71 1961 71ZM2661 0L2613 0Q2603 0 2596 6Q2590 13 2590 23L2590 497Q2590 507 2596 513Q2603 520 2613 520L2658 520Q2668 520 2674 513Q2681 507 2681 497L2681 462Q2704 493 2739 511Q2774 530 2823 530Q2936 531 2983 438Q3006 480 3050 505Q3094 530 3150 530Q3202 530 3244 506Q3287 482 3311 433Q3336 385 3336 312L3336 23Q3336 13 3329 6Q3323 0 3313 0L3266 0Q3256 0 3249 6Q3243 13 3243 23L3243 303Q3243 359 3227 391Q3211 423 3184 436Q3157 449 3125 449Q3099 449 3072 436Q3045 423 3027 391Q3010 359 3010 303L3010 23Q3010 13 3003 6Q2997 0 2987 0L2940 0Q2930 0 2923 6Q2917 13 2917 23L2917 303Q2917 359 2900 391Q2883 423 2856 436Q2829 449 2799 449Q2773 449 2746 436Q2719 423 2701 391Q2684 359 2684 304L2684 23Q2684 13 2677 6Q2671 0 2661 0ZM3692 -10Q3616 -10 3565 19Q3514 48 3487 99Q3460 151 3457 217Q3456 234 3456 260Q3456 287 3457 303Q3460 370 3487 421Q3515 472 3566 501Q3617 530 3692 530Q3767 530 3818 501Q3869 472 3896 421Q3924 370 3927 303Q3928 287 3928 260Q3928 234 3927 217Q3924 151 3897 99Q3870 48 3819 19Q3768 -10 3692 -10ZM3692 67Q3754 67 3791 106Q3828 146 3831 222Q3832 237 3832 260Q3832 283 3831 298Q3828 374 3791 413Q3754 453 3692 453Q3630 453 3592 413Q3555 374 3553 298Q3552 283 3552 260Q3552 237 3553 222Q3555 146 3592 106Q3630 67 3692 67ZM4126 0L4076 0Q4066 0 4059 6Q4053 13 4053 23L4053 497Q4053 507 4059 513Q4066 520 4076 520L4123 520Q4133 520 4139 513Q4146 507 4146 497L4146 453Q4172 487 4211 508Q4251 530 4313 530Q4378 530 4423 501Q4469 473 4492 422Q4516 372 4516 305L4516 23Q4516 13 4509 6Q4503 0 4493 0L4443 0Q4433 0 4426 6Q4420 13 4420 23L4420 300Q4420 370 4386 409Q4352 449 4286 449Q4224 449 4186 409Q4149 370 4149 300L4149 23Q4149 13 4142 6Q4136 0 4126 0ZM4867 -10Q4763 -10 4702 53Q4641 117 4635 227Q4634 240 4634 260Q4634 281 4635 294Q4639 365 4668 418Q4697 472 4747 501Q4798 530 4866 530Q4942 530 4993 498Q5045 466 5072 407Q5099 348 5099 269L5099 252Q5099 241 5092 235Q5086 229 5076 229L4730 229Q4730 228 4730 225Q4730 222 4730 220Q4732 179 4748 143Q4764 108 4794 86Q4825 64 4866 64Q4902 64 4926 75Q4950 86 4965 99Q4980 113 4985 121Q4994 133 4999 135Q5004 138 5015 138L5064 138Q5073 138 5079 132Q5086 127 5085 117Q5084 102 5069 80Q5054 59 5026 38Q4999 17 4958 3Q4918 -10 4867 -10ZM4730 301L4730 298L5004 298L5004 301Q5004 346 4987 381Q4971 416 4940 436Q4909 457 4866 457Q4823 457 4792 436Q4762 416 4746 381Q4730 346 4730 301ZM5357 -190L5310 -190Q5302 -190 5296 -184Q5290 -178 5290 -170Q5290 -166 5291 -162Q5292 -158 5295 -152L5372 31L5181 482Q5176 494 5176 499Q5176 508 5182 514Q5188 520 5197 520L5246 520Q5257 520 5262 515Q5267 510 5270 503L5422 139L5578 503Q5581 510 5586 515Q5592 520 5603 520L5650 520Q5659 520 5665 514Q5671 508 5671 500Q5671 495 5666 482L5382 -173Q5379 -180 5373 -185Q5368 -190 5357 -190ZM6224 -10Q6120 -10 6059 53Q5998 117 5992 227Q5991 240 5991 260Q5991 281 5992 294Q5996 365 6025 418Q6054 472 6104 501Q6155 530 6223 530Q6299 530 6350 498Q6402 466 6429 407Q6456 348 6456 269L6456 252Q6456 241 6449 235Q6443 229 6433 229L6087 229Q6087 228 6087 225Q6087 222 6087 220Q6089 179 6105 143Q6121 108 6151 86Q6182 64 6223 64Q6259 64 6283 75Q6307 86 6322 99Q6337 113 6342 121Q6351 133 6356 135Q6361 138 6372 138L6421 138Q6430 138 6436 132Q6443 127 6442 117Q6441 102 6426 80Q6411 59 6383 38Q6356 17 6315 3Q6275 -10 6224 -10ZM6087 301L6087 298L6361 298L6361 301Q6361 346 6344 381Q6328 416 6297 436Q6266 457 6223 457Q6180 457 6149 436Q6119 416 6103 381Q6087 346 6087 301ZM6721 -10Q6671 -10 6630 10Q6589 30 6564 64Q6539 98 6539 141Q6539 210 6595 251Q6651 292 6741 305L6890 326L6890 355Q6890 403 6862 430Q6835 457 6773 457Q6740 457 6717 447Q6695 437 6681 423Q6667 409 6659 395Q6655 386 6650 382Q6646 378 6639 378L6596 378Q6587 378 6580 384Q6574 391 6574 400Q6574 415 6585 437Q6597 459 6621 480Q6645 501 6682 515Q6720 530 6774 530Q6834 530 6875 514Q6916 499 6939 473Q6963 447 6973 414Q6984 381 6984 347L6984 23Q6984 13 6977 6Q6971 0 6961 0L6915 0Q6904 0 6898 6Q6892 13 6892 23L6892 66Q6879 48 6857 30Q6835 13 6802 1Q6769 -10 6721 -10ZM6742 65Q6783 65 6817 82Q6851 100 6870 137Q6890 174 6890 230L6890 258L6774 241Q6703 231 6667 207Q6631 184 6631 148Q6631 120 6647 101Q6664 83 6689 74Q6715 65 6742 65ZM7308 -10Q7252 -10 7212 4Q7172 18 7147 38Q7122 58 7109 78Q7097 98 7096 110Q7095 121 7103 127Q7111 133 7119 133L7164 133Q7169 133 7172 131Q7176 130 7182 123Q7195 109 7211 95Q7227 81 7250 72Q7274 63 7309 63Q7360 63 7393 82Q7426 102 7426 140Q7426 165 7412 180Q7399 195 7364 207Q7330 219 7270 232Q7210 246 7175 266Q7140 287 7125 315Q7110 344 7110 380Q7110 417 7132 451Q7154 486 7196 508Q7239 530 7303 530Q7355 530 7392 517Q7429 504 7453 484Q7477 465 7489 446Q7501 427 7502 414Q7503 404 7496 397Q7489 391 7480 391L7438 391Q7431 391 7426 394Q7422 397 7418 401Q7408 414 7394 427Q7381 440 7359 448Q7338 457 7303 457Q7253 457 7228 436Q7203 415 7203 383Q7203 364 7214 349Q7225 334 7256 322Q7287 310 7348 296Q7414 283 7452 261Q7490 239 7506 210Q7522 181 7522 143Q7522 101 7498 66Q7474 31 7426 10Q7378 -10 7308 -10ZM7709 0L7661 0Q7651 0 7644 6Q7638 13 7638 23L7638 497Q7638 507 7644 513Q7651 520 7661 520L7709 520Q7719 520 7725 513Q7732 507 7732 497L7732 23Q7732 13 7725 6Q7719 0 7709 0ZM7716 617L7653 617Q7643 617 7636 623Q7630 630 7630 640L7630 694Q7630 704 7636 711Q7643 718 7653 718L7716 718Q7726 718 7733 711Q7740 704 7740 694L7740 640Q7740 630 7733 623Q7726 617 7716 617ZM7951 0L7904 0Q7894 0 7887 6Q7881 13 7881 23L7881 687Q7881 697 7887 703Q7894 710 7904 710L7951 710Q7962 710 7968 703Q7974 697 7974 687L7974 23Q7974 13 7968 6Q7962 0 7951 0ZM8261 -190L8214 -190Q8206 -190 8200 -184Q8194 -178 8194 -170Q8194 -166 8195 -162Q8196 -158 8199 -152L8276 31L8085 482Q8080 494 8080 499Q8080 508 8086 514Q8092 520 8101 520L8150 520Q8161 520 8166 515Q8171 510 8174 503L8326 139L8482 503Q8485 510 8490 515Q8496 520 8507 520L8554 520Q8563 520 8569 514Q8575 508 8575 500Q8575 495 8570 482L8286 -173Q8283 -180 8277 -185Q8272 -190 8261 -190Z" style="" fill="#ffffff"></path></g></g></g></svg>